<svg xmlns="http://www.w3.org/2000/svg" height="20" viewBox="0 -960 960 960" width="20"><path d="M210.154-261.154q-27.539-40.154-45.808-85.731-18.269-45.576-24.808-97.115H170q5 45 22.5 84.5T236-287l-25.846 25.846ZM139.538-516q3.462-51.539 23.269-97.115 19.808-45.577 48.885-84.193L236-673q-26 33-43.5 72.5T170-516h-30.462ZM444-138q-51.539-5.769-97.115-25.192-45.577-19.423-84.193-48.5L287-236q33 26 72.5 43.5T444-170v32ZM287-725.538l-24.308-22.77q38.616-29.846 84.193-48.5Q392.461-815.462 444-822v32q-45 5-84.5 21.346T287-725.538ZM480-400q-33.846 0-56.923-23.077Q400-446.154 400-480q0-33.846 23.077-56.923Q446.154-560 480-560q33.846 0 56.923 23.077Q560-513.846 560-480q0 33.846-23.077 56.923Q513.846-400 480-400Zm36 262v-32q44.231-5 84.5-21.731t72.5-42.731l24.308 22.77q-38.616 29.077-84.193 48.115Q567.539-144.538 516-138Zm157-586q-33-26-72.5-43.5T516-790v-32q51.539 5.769 96.731 24.807 45.192 19.039 84.577 48.885L673-724Zm75.308 461.308L724-287q26-33 43.5-72.5T790-444h30.462q-3.462 51.539-23.269 97.115-19.808 45.577-48.885 84.193ZM790-516q-5-45-22.5-84.5T724-673l25.846-25.846q27.539 40.154 45.808 85.731 18.269 45.576 24.808 97.115H790Z"/></svg>