<svg width="77" height="66" xmlns="http://www.w3.org/2000/svg" xmlns:xlink="http://www.w3.org/1999/xlink" xml:space="preserve" overflow="hidden"><defs><clipPath id="clip0"><rect x="648" y="732" width="77" height="66"/></clipPath></defs><g clip-path="url(#clip0)" transform="translate(-648 -732)"><path d="M676 739.5C676 735.91 678.91 733 682.5 733 686.09 733 689 735.91 689 739.5 689 743.09 686.09 746 682.5 746 678.91 746 676 743.09 676 739.5Z" stroke="#000000" stroke-width="2.29167" stroke-miterlimit="8" fill-rule="evenodd"/><path d="M682 755.5C682 751.91 684.91 749 688.5 749 692.09 749 695 751.91 695 755.5 695 759.09 692.09 762 688.5 762 684.91 762 682 759.09 682 755.5Z" stroke="#000000" stroke-width="2.29167" stroke-miterlimit="8" fill-rule="evenodd"/><path d="M699 746.5C699 742.91 701.91 740 705.5 740 709.09 740 712 742.91 712 746.5 712 750.09 709.09 753 705.5 753 701.91 753 699 750.09 699 746.5Z" stroke="#000000" stroke-width="2.29167" stroke-miterlimit="8" fill-rule="evenodd"/><path d="M710 782.5C710 778.91 712.91 776 716.5 776 720.09 776 723 778.91 723 782.5 723 786.09 720.09 789 716.5 789 712.91 789 710 786.09 710 782.5Z" stroke="#C00000" stroke-width="2.29167" stroke-miterlimit="8" fill="#C00000" fill-rule="evenodd"/><path d="M695 774.5C695 770.91 697.91 768 701.5 768 705.09 768 708 770.91 708 774.5 708 778.09 705.09 781 701.5 781 697.91 781 695 778.09 695 774.5Z" stroke="#C00000" stroke-width="2.29167" stroke-miterlimit="8" fill="#C00000" fill-rule="evenodd"/><path d="M711 764.5C711 760.91 713.91 758 717.5 758 721.09 758 724 760.91 724 764.5 724 768.09 721.09 771 717.5 771 713.91 771 711 768.09 711 764.5Z" stroke="#C00000" stroke-width="2.29167" stroke-miterlimit="8" fill="#C00000" fill-rule="evenodd"/><path d="M656 777.5C656 773.91 658.91 771 662.5 771 666.09 771 669 773.91 669 777.5 669 781.09 666.09 784 662.5 784 658.91 784 656 781.09 656 777.5Z" stroke="#000000" stroke-width="2.29167" stroke-miterlimit="8" fill="none" fill-rule="evenodd"/><path d="M671 775.5C671 771.91 673.91 769 677.5 769 681.09 769 684 771.91 684 775.5 684 779.09 681.09 782 677.5 782 673.91 782 671 779.09 671 775.5Z" stroke="#000000" stroke-width="2.29167" stroke-miterlimit="8" fill="none" fill-rule="evenodd"/><path d="M693 790.5C693 786.91 695.91 784 699.5 784 703.09 784 706 786.91 706 790.5 706 794.09 703.09 797 699.5 797 695.91 797 693 794.09 693 790.5Z" stroke="#C00000" stroke-width="2.29167" stroke-miterlimit="8" fill="#C00000" fill-rule="evenodd"/><path d="M649 762.5C649 758.91 651.91 756 655.5 756 659.09 756 662 758.91 662 762.5 662 766.09 659.09 769 655.5 769 651.91 769 649 766.09 649 762.5Z" stroke="#000000" stroke-width="2.29167" stroke-miterlimit="8" fill="none" fill-rule="evenodd"/><path d="M662 760.5C662 756.91 664.91 754 668.5 754 672.09 754 675 756.91 675 760.5 675 764.09 672.09 767 668.5 767 664.91 767 662 764.09 662 760.5Z" stroke="#000000" stroke-width="2.29167" stroke-miterlimit="8" fill="none" fill-rule="evenodd"/><path d="M656 747.5C656 743.91 658.91 741 662.5 741 666.09 741 669 743.91 669 747.5 669 751.09 666.09 754 662.5 754 658.91 754 656 751.09 656 747.5Z" stroke="#000000" stroke-width="2.29167" stroke-miterlimit="8" fill="none" fill-rule="evenodd"/></g></svg>