<svg width="202" height="190" xmlns="http://www.w3.org/2000/svg" xmlns:xlink="http://www.w3.org/1999/xlink" xml:space="preserve" overflow="hidden"><defs><clipPath id="clip0"><rect x="1056" y="920" width="202" height="190"/></clipPath></defs><g clip-path="url(#clip0)" transform="translate(-1056 -920)"><path d="M1118 948.5C1118 938.835 1125.83 931 1135.5 931 1145.16 931 1153 938.835 1153 948.5 1153 958.165 1145.16 966 1135.5 966 1125.83 966 1118 958.165 1118 948.5Z" stroke="#000000" stroke-width="2.29167" stroke-miterlimit="8" fill="#C00000" fill-rule="evenodd"/><path d="M1095 1036C1095 1014.46 1112.91 997 1135 997 1157.09 997 1175 1014.46 1175 1036 1175 1057.54 1157.09 1075 1135 1075 1112.91 1075 1095 1057.54 1095 1036Z" stroke="#000000" stroke-width="2.29167" stroke-miterlimit="8" fill="#AFABAB" fill-rule="evenodd"/><path d="M1182 984.5C1182 969.865 1194.31 958 1209.5 958 1224.69 958 1237 969.865 1237 984.5 1237 999.136 1224.69 1011 1209.5 1011 1194.31 1011 1182 999.136 1182 984.5Z" stroke="#000000" stroke-width="2.29167" stroke-miterlimit="8" fill="#0070C0" fill-rule="evenodd"/><path d="M1057 1044C1057 1008.1 1086.1 979 1122 979 1157.9 979 1187 1008.1 1187 1044 1187 1079.9 1157.9 1109 1122 1109 1086.1 1109 1057 1079.9 1057 1044Z" stroke="#000000" stroke-width="2.29167" stroke-miterlimit="8" fill="none" fill-rule="evenodd"/><path d="M1107 947C1107 932.641 1118.42 921 1132.5 921 1146.58 921 1158 932.641 1158 947 1158 961.359 1146.58 973 1132.5 973 1118.42 973 1107 961.359 1107 947Z" stroke="#C00000" stroke-width="2.29167" stroke-miterlimit="8" fill="none" fill-rule="evenodd"/><path d="M1174 978.5C1174 955.58 1192.58 937 1215.5 937 1238.42 937 1257 955.58 1257 978.5 1257 1001.42 1238.42 1020 1215.5 1020 1192.58 1020 1174 1001.42 1174 978.5Z" stroke="#0070C0" stroke-width="2.29167" stroke-miterlimit="8" fill="none" fill-rule="evenodd"/></g></svg>