<svg width="20" height="20" xmlns="http://www.w3.org/2000/svg" xmlns:xlink="http://www.w3.org/1999/xlink" xml:space="preserve" overflow="hidden"><defs><clipPath id="clip0"><rect x="683" y="575" width="20" height="20"/></clipPath></defs><g clip-path="url(#clip0)" transform="translate(-683 -575)"><path d="M685.917 587.208C685.75 587.208 685.611 587.155 685.5 587.048 685.389 586.941 685.333 586.807 685.333 586.646 685.333 586.479 685.389 586.34 685.5 586.229 685.611 586.118 685.75 586.062 685.917 586.062 686.083 586.062 686.219 586.118 686.323 586.229 686.427 586.34 686.479 586.479 686.479 586.646 686.479 586.812 686.426 586.948 686.319 587.052 686.212 587.156 686.078 587.208 685.917 587.208ZM685.917 583.938C685.75 583.938 685.611 583.882 685.5 583.771 685.389 583.66 685.333 583.521 685.333 583.354 685.333 583.188 685.389 583.052 685.5 582.948 685.611 582.844 685.75 582.792 685.917 582.792 686.083 582.792 686.219 582.845 686.323 582.952 686.427 583.059 686.479 583.193 686.479 583.354 686.479 583.521 686.426 583.66 686.319 583.771 686.212 583.882 686.078 583.938 685.917 583.938ZM688.083 590.896C687.8 590.896 687.566 590.802 687.381 590.614 687.197 590.427 687.104 590.194 687.104 589.917 687.104 589.633 687.198 589.396 687.386 589.204 687.573 589.013 687.806 588.917 688.083 588.917 688.367 588.917 688.604 589.013 688.796 589.204 688.987 589.396 689.083 589.633 689.083 589.917 689.083 590.2 688.987 590.434 688.796 590.619 688.604 590.803 688.367 590.896 688.083 590.896ZM688.083 587.625C687.8 587.625 687.566 587.531 687.381 587.344 687.197 587.156 687.104 586.923 687.104 586.646 687.104 586.362 687.198 586.125 687.386 585.933 687.573 585.742 687.806 585.646 688.083 585.646 688.367 585.646 688.604 585.742 688.796 585.933 688.987 586.125 689.083 586.362 689.083 586.646 689.083 586.929 688.987 587.163 688.796 587.348 688.604 587.533 688.367 587.625 688.083 587.625ZM688.083 584.354C687.8 584.354 687.566 584.258 687.381 584.067 687.197 583.875 687.104 583.638 687.104 583.354 687.104 583.071 687.198 582.837 687.386 582.652 687.573 582.467 687.806 582.375 688.083 582.375 688.367 582.375 688.604 582.469 688.796 582.656 688.987 582.844 689.083 583.077 689.083 583.354 689.083 583.638 688.987 583.875 688.796 584.067 688.604 584.258 688.367 584.354 688.083 584.354ZM688.083 581.083C687.8 581.083 687.566 580.987 687.381 580.796 687.197 580.604 687.104 580.367 687.104 580.083 687.104 579.8 687.198 579.566 687.386 579.381 687.573 579.197 687.806 579.104 688.083 579.104 688.367 579.104 688.604 579.198 688.796 579.386 688.987 579.573 689.083 579.806 689.083 580.083 689.083 580.367 688.987 580.604 688.796 580.796 688.604 580.987 688.367 581.083 688.083 581.083ZM691.355 587.896C690.993 587.896 690.694 587.776 690.458 587.537 690.222 587.297 690.104 586.999 690.104 586.641 690.104 586.283 690.224 585.983 690.463 585.74 690.703 585.497 691.001 585.375 691.359 585.375 691.717 585.375 692.017 585.496 692.26 585.738 692.503 585.981 692.625 586.283 692.625 586.645 692.625 587.007 692.504 587.306 692.262 587.542 692.019 587.778 691.717 587.896 691.355 587.896ZM691.355 584.625C690.993 584.625 690.694 584.504 690.458 584.262 690.222 584.019 690.104 583.717 690.104 583.355 690.104 582.993 690.224 582.694 690.463 582.458 690.703 582.222 691.001 582.104 691.359 582.104 691.717 582.104 692.017 582.224 692.26 582.463 692.503 582.703 692.625 583.001 692.625 583.359 692.625 583.717 692.504 584.017 692.262 584.26 692.019 584.503 691.717 584.625 691.355 584.625ZM691.354 590.896C691.071 590.896 690.837 590.802 690.652 590.614 690.467 590.427 690.375 590.194 690.375 589.917 690.375 589.633 690.469 589.396 690.656 589.204 690.844 589.013 691.077 588.917 691.354 588.917 691.638 588.917 691.875 589.013 692.067 589.204 692.258 589.396 692.354 589.633 692.354 589.917 692.354 590.2 692.258 590.434 692.067 590.619 691.875 590.803 691.638 590.896 691.354 590.896ZM691.354 581.083C691.071 581.083 690.837 580.987 690.652 580.796 690.467 580.604 690.375 580.367 690.375 580.083 690.375 579.8 690.469 579.566 690.656 579.381 690.844 579.197 691.077 579.104 691.354 579.104 691.638 579.104 691.875 579.198 692.067 579.386 692.258 579.573 692.354 579.806 692.354 580.083 692.354 580.367 692.258 580.604 692.067 580.796 691.875 580.987 691.638 581.083 691.354 581.083ZM691.354 592.667C691.188 592.667 691.052 592.611 690.948 592.5 690.844 592.389 690.792 592.25 690.792 592.083 690.792 591.917 690.845 591.781 690.952 591.677 691.059 591.573 691.193 591.521 691.354 591.521 691.521 591.521 691.66 591.574 691.771 591.681 691.882 591.788 691.938 591.922 691.938 592.083 691.938 592.25 691.882 592.389 691.771 592.5 691.66 592.611 691.521 592.667 691.354 592.667ZM691.354 578.479C691.188 578.479 691.052 578.426 690.948 578.319 690.844 578.212 690.792 578.078 690.792 577.917 690.792 577.75 690.845 577.611 690.952 577.5 691.059 577.389 691.193 577.333 691.354 577.333 691.521 577.333 691.66 577.389 691.771 577.5 691.882 577.611 691.938 577.75 691.938 577.917 691.938 578.083 691.882 578.219 691.771 578.323 691.66 578.427 691.521 578.479 691.354 578.479ZM694.641 587.896C694.283 587.896 693.983 587.776 693.74 587.537 693.497 587.297 693.375 586.999 693.375 586.641 693.375 586.283 693.496 585.983 693.738 585.74 693.981 585.497 694.283 585.375 694.645 585.375 695.007 585.375 695.306 585.496 695.542 585.738 695.778 585.981 695.896 586.283 695.896 586.645 695.896 587.007 695.776 587.306 695.537 587.542 695.297 587.778 694.999 587.896 694.641 587.896ZM694.641 584.625C694.283 584.625 693.983 584.504 693.74 584.262 693.497 584.019 693.375 583.717 693.375 583.355 693.375 582.993 693.496 582.694 693.738 582.458 693.981 582.222 694.283 582.104 694.645 582.104 695.007 582.104 695.306 582.224 695.542 582.463 695.778 582.703 695.896 583.001 695.896 583.359 695.896 583.717 695.776 584.017 695.537 584.26 695.297 584.503 694.999 584.625 694.641 584.625ZM694.646 590.896C694.362 590.896 694.125 590.802 693.933 590.614 693.742 590.427 693.646 590.194 693.646 589.917 693.646 589.633 693.742 589.396 693.933 589.204 694.125 589.013 694.362 588.917 694.646 588.917 694.929 588.917 695.163 589.013 695.348 589.204 695.533 589.396 695.625 589.633 695.625 589.917 695.625 590.2 695.531 590.434 695.344 590.619 695.156 590.803 694.923 590.896 694.646 590.896ZM694.646 581.083C694.362 581.083 694.125 580.987 693.933 580.796 693.742 580.604 693.646 580.367 693.646 580.083 693.646 579.8 693.742 579.566 693.933 579.381 694.125 579.197 694.362 579.104 694.646 579.104 694.929 579.104 695.163 579.198 695.348 579.386 695.533 579.573 695.625 579.806 695.625 580.083 695.625 580.367 695.531 580.604 695.344 580.796 695.156 580.987 694.923 581.083 694.646 581.083ZM694.646 592.667C694.479 592.667 694.34 592.611 694.229 592.5 694.118 592.389 694.062 592.25 694.062 592.083 694.062 591.917 694.118 591.781 694.229 591.677 694.34 591.573 694.479 591.521 694.646 591.521 694.812 591.521 694.948 591.574 695.052 591.681 695.156 591.788 695.208 591.922 695.208 592.083 695.208 592.25 695.155 592.389 695.048 592.5 694.941 592.611 694.807 592.667 694.646 592.667ZM694.646 578.479C694.479 578.479 694.34 578.426 694.229 578.319 694.118 578.212 694.062 578.078 694.062 577.917 694.062 577.75 694.118 577.611 694.229 577.5 694.34 577.389 694.479 577.333 694.646 577.333 694.812 577.333 694.948 577.389 695.052 577.5 695.156 577.611 695.208 577.75 695.208 577.917 695.208 578.083 695.155 578.219 695.048 578.323 694.941 578.427 694.807 578.479 694.646 578.479ZM697.917 590.896C697.633 590.896 697.396 590.802 697.204 590.614 697.013 590.427 696.917 590.194 696.917 589.917 696.917 589.633 697.013 589.396 697.204 589.204 697.396 589.013 697.633 588.917 697.917 588.917 698.2 588.917 698.434 589.013 698.619 589.204 698.803 589.396 698.896 589.633 698.896 589.917 698.896 590.2 698.802 590.434 698.614 590.619 698.427 590.803 698.194 590.896 697.917 590.896ZM697.917 587.625C697.633 587.625 697.396 587.531 697.204 587.344 697.013 587.156 696.917 586.923 696.917 586.646 696.917 586.362 697.013 586.125 697.204 585.933 697.396 585.742 697.633 585.646 697.917 585.646 698.2 585.646 698.434 585.742 698.619 585.933 698.803 586.125 698.896 586.362 698.896 586.646 698.896 586.929 698.802 587.163 698.614 587.348 698.427 587.533 698.194 587.625 697.917 587.625ZM697.917 584.354C697.633 584.354 697.396 584.258 697.204 584.067 697.013 583.875 696.917 583.638 696.917 583.354 696.917 583.071 697.013 582.837 697.204 582.652 697.396 582.467 697.633 582.375 697.917 582.375 698.2 582.375 698.434 582.469 698.619 582.656 698.803 582.844 698.896 583.077 698.896 583.354 698.896 583.638 698.802 583.875 698.614 584.067 698.427 584.258 698.194 584.354 697.917 584.354ZM697.917 581.083C697.633 581.083 697.396 580.987 697.204 580.796 697.013 580.604 696.917 580.367 696.917 580.083 696.917 579.8 697.013 579.566 697.204 579.381 697.396 579.197 697.633 579.104 697.917 579.104 698.2 579.104 698.434 579.198 698.619 579.386 698.803 579.573 698.896 579.806 698.896 580.083 698.896 580.367 698.802 580.604 698.614 580.796 698.427 580.987 698.194 581.083 697.917 581.083ZM700.083 587.208C699.917 587.208 699.781 587.155 699.677 587.048 699.573 586.941 699.521 586.807 699.521 586.646 699.521 586.479 699.574 586.34 699.681 586.229 699.788 586.118 699.922 586.062 700.083 586.062 700.25 586.062 700.389 586.118 700.5 586.229 700.611 586.34 700.667 586.479 700.667 586.646 700.667 586.812 700.611 586.948 700.5 587.052 700.389 587.156 700.25 587.208 700.083 587.208ZM700.083 583.938C699.917 583.938 699.781 583.882 699.677 583.771 699.573 583.66 699.521 583.521 699.521 583.354 699.521 583.188 699.574 583.052 699.681 582.948 699.788 582.844 699.922 582.792 700.083 582.792 700.25 582.792 700.389 582.845 700.5 582.952 700.611 583.059 700.667 583.193 700.667 583.354 700.667 583.521 700.611 583.66 700.5 583.771 700.389 583.882 700.25 583.938 700.083 583.938Z" fill="#C55A11"/></g></svg>