<svg xmlns="http://www.w3.org/2000/svg" height="20" viewBox="0 -960 960 960" width="20"><path d="M480.409-136q-70.948 0-133.685-26.839-62.737-26.84-109.865-73.922-47.127-47.082-73.993-109.716Q136-409.111 136-480.325q0-71.214 26.839-133.451 26.84-62.237 73.922-109.365 47.082-47.127 109.716-73.993Q409.111-824 480.325-824q71.214 0 133.451 26.839 62.237 26.84 109.365 73.922 47.127 47.082 73.993 109.482Q824-551.357 824-480.409q0 70.948-26.839 133.685-26.84 62.737-73.922 109.865-47.082 47.127-109.482 73.993Q551.357-136 480.409-136Zm-.179-32Q610-168 701-259.23q91-91.229 91-221Q792-610 700.77-701q-91.229-91-221-91Q350-792 259-700.77q-91 91.229-91 221Q168-350 259.23-259q91.229 91 221 91ZM480-376q-43.5 0-73.75-30.25T376-480q0-43.5 30.25-73.75T480-584q43.5 0 73.75 30.25T584-480q0 43.5-30.25 73.75T480-376Z"/></svg>