<svg xmlns="http://www.w3.org/2000/svg" height="20" viewBox="0 -960 960 960" width="20"><path d="M328.769-184v-195.077q-80.231-3.769-136.5-60.385Q136-496.077 136-577.231q0-83.461 58.038-141.115Q252.077-776 335.538-776q81.154 0 138.154 55.884 57 55.885 60.77 136.116h227.692l-77.769-77 23.307-23.308L824-568 707.692-451.692 685.154-475l77-77H502.615v-23.692q0-70.385-48.846-119.346Q404.923-744 335.538-744q-70.384 0-118.961 48.577T168-577.231q0 69.385 49.346 118.231 49.346 48.846 119.731 48.846h23.692V-184h-32Z"/></svg>